<svg xmlns="http://www.w3.org/2000/svg" viewBox="0 0 420 84" role="img" aria-labelledby="title desc">
  <title id="title">ApprofittOffro</title>
  <desc id="desc">Wordmark di test per la versione mobile di ApprofittOffro.</desc>
  <defs>
    <linearGradient id="bagLeft" x1="0%" y1="0%" x2="100%" y2="100%">
      <stop offset="0%" stop-color="#B7E600"/>
      <stop offset="100%" stop-color="#4FA719"/>
    </linearGradient>
    <linearGradient id="bagRight" x1="0%" y1="0%" x2="100%" y2="100%">
      <stop offset="0%" stop-color="#FFBE2E"/>
      <stop offset="100%" stop-color="#F26A16"/>
    </linearGradient>
    <linearGradient id="textLeft" x1="0%" y1="0%" x2="100%" y2="100%">
      <stop offset="0%" stop-color="#A8EA33"/>
      <stop offset="100%" stop-color="#5DB01F"/>
    </linearGradient>
    <linearGradient id="textRight" x1="0%" y1="0%" x2="100%" y2="100%">
      <stop offset="0%" stop-color="#FFD24D"/>
      <stop offset="100%" stop-color="#F28A17"/>
    </linearGradient>
    <filter id="softShadow" x="-20%" y="-20%" width="140%" height="160%">
      <feDropShadow dx="0" dy="4" stdDeviation="4" flood-color="#000000" flood-opacity="0.35"/>
    </filter>
  </defs>

  <g filter="url(#softShadow)" transform="translate(12 8)">
    <path d="M24 24 C46 6, 90 4, 132 16 C114 28, 102 42, 90 58 C64 50, 42 38, 24 24 Z" fill="url(#bagLeft)"/>
    <path d="M104 18 C132 4, 178 6, 212 28 C192 40, 172 56, 144 62 C128 42, 116 28, 104 18 Z" fill="url(#bagRight)"/>
    <path d="M85 13 C92 2, 112 0, 126 8" fill="none" stroke="#7C4308" stroke-width="5" stroke-linecap="round"/>
    <path d="M111 14 C118 3, 138 2, 152 10" fill="none" stroke="#7C4308" stroke-width="5" stroke-linecap="round"/>
  </g>

  <g filter="url(#softShadow)">
    <text x="14" y="72" font-family="Arial, Helvetica, sans-serif" font-size="42" font-weight="900" font-style="italic" letter-spacing="-1.4" fill="url(#textLeft)">Approfitt</text>
    <text x="229" y="72" font-family="Arial, Helvetica, sans-serif" font-size="42" font-weight="900" font-style="italic" letter-spacing="-1.4" fill="url(#textRight)">Offro</text>
  </g>
</svg>
